<svg width="35" height="35" viewBox="0 0 35 35" fill="none" xmlns="http://www.w3.org/2000/svg">
<rect width="35" height="35" rx="17.5" fill="url(#paint0_linear_131_1118)" fill-opacity="0.3"/>
<path fill-rule="evenodd" clip-rule="evenodd" d="M21.1191 12.5533C22.593 12.8953 23.1569 13.7571 23.8637 14.9434H21.1191V12.5533ZM12.5055 15.043C12.7941 15.043 13.0036 15.1823 13.0036 15.5078C13.0036 15.7824 12.7814 16.0051 12.507 16.0059H9.49805C9.22295 16.0059 9 16.2289 9 16.5039C9 16.779 9.22295 17.002 9.49805 17.002H13.9805C14.2582 17.002 14.4805 17.2248 14.4805 17.5C14.4805 17.7751 14.2575 17.998 13.9824 17.998H9.49805C9.22295 17.998 9 18.221 9 18.4961C9 18.7712 9.22295 18.9941 9.49805 18.9941H10.5938V20.4883C10.5938 20.7634 10.8167 20.9863 11.0918 20.9863H12.0929C12.2714 21.8654 13.0482 22.5137 13.9639 22.5137C14.8795 22.5137 15.6563 21.8654 15.8348 20.9863H20.8918C21.0702 21.8654 21.847 22.5137 22.7627 22.5137C23.6784 22.5137 24.4551 21.8654 24.6336 20.9863H25.502C25.777 20.9863 26 20.7634 26 20.4883V17.5C26 16.0387 24.4586 15.9417 24.4572 15.9395H20.6211C20.346 15.9395 20.123 15.7165 20.123 15.4414V12.4531H11.0918C10.8167 12.4531 10.5938 12.6761 10.5938 12.9512V14.0469H9.99609C9.721 14.0469 9.49805 14.2698 9.49805 14.5449C9.49805 14.82 9.721 15.043 9.99609 15.043H12.5055ZM23.4083 19.9588C23.7649 20.3154 23.7649 20.8937 23.4083 21.2503C22.8348 21.8238 21.8496 21.4158 21.8496 20.6045C21.8496 19.7934 22.8348 19.3853 23.4083 19.9588V19.9588ZM14.6095 19.9588C14.9661 20.3154 14.9661 20.8937 14.6095 21.2503C14.036 21.8238 13.0508 21.4158 13.0508 20.6045C13.0508 19.7934 14.036 19.3853 14.6095 19.9588V19.9588Z" fill="#3F4E65"/>
<defs>
<linearGradient id="paint0_linear_131_1118" x1="2.75416e-07" y1="17.7966" x2="34.0375" y2="17.7966" gradientUnits="userSpaceOnUse">
<stop stop-color="#FFC650"/>
<stop offset="1" stop-color="#FECA6E"/>
</linearGradient>
</defs>
</svg>
