<svg width="24" height="23" viewBox="0 0 24 23" fill="none" xmlns="http://www.w3.org/2000/svg">
<path d="M6.25 4.3125C5.4875 4.3125 4.75623 4.6154 4.21707 5.15457C3.6779 5.69373 3.375 6.425 3.375 7.1875V7.47644L12 12.121L20.625 7.47788V7.1875C20.625 6.425 20.3221 5.69373 19.7829 5.15457C19.2438 4.6154 18.5125 4.3125 17.75 4.3125H6.25Z" fill="white"/>
<path d="M20.625 9.10938L12.3407 13.5699C12.236 13.6263 12.1189 13.6558 12 13.6558C11.8811 13.6558 11.764 13.6263 11.6593 13.5699L3.375 9.10938V15.8124C3.375 16.5749 3.6779 17.3062 4.21707 17.8454C4.75623 18.3845 5.4875 18.6874 6.25 18.6874H17.75C18.5125 18.6874 19.2438 18.3845 19.7829 17.8454C20.3221 17.3062 20.625 16.5749 20.625 15.8124V9.10938Z" fill="white"/>
</svg>
