<svg width="35" height="35" viewBox="0 0 35 35" fill="none" xmlns="http://www.w3.org/2000/svg">
<rect width="35" height="35" rx="17.5" fill="url(#paint0_linear_131_1126)" fill-opacity="0.3"/>
<path d="M15.5909 19.8636H18.2727V19.5909C18.2727 18.6875 18.6989 18.233 19.5227 17.75C20.6307 17.1023 21.3864 16.2898 21.3864 14.9091C21.3864 12.7727 19.5852 11.7045 17.1591 11.7045C14.9489 11.7045 13.1136 12.75 13.0909 15.25H16C16 14.5966 16.5227 14.1364 17.1364 14.1364C17.7045 14.1364 18.1591 14.5227 18.1591 15.0909C18.1591 15.7273 17.608 16.1193 16.8864 16.5909C16.0398 17.142 15.5909 17.7216 15.5909 19.5909V19.8636ZM16.9773 23.6818C17.8125 23.6818 18.5568 22.9773 18.5682 22.0909C18.5568 21.2273 17.8125 20.5227 16.9773 20.5227C16.0966 20.5227 15.375 21.2273 15.3864 22.0909C15.375 22.9773 16.0966 23.6818 16.9773 23.6818Z" fill="#3F4E65"/>
<defs>
<linearGradient id="paint0_linear_131_1126" x1="2.75416e-07" y1="17.7966" x2="34.0375" y2="17.7966" gradientUnits="userSpaceOnUse">
<stop stop-color="#FFC650"/>
<stop offset="1" stop-color="#FECA6E"/>
</linearGradient>
</defs>
</svg>
