<svg width="35" height="35" viewBox="0 0 35 35" fill="none" xmlns="http://www.w3.org/2000/svg">
<rect width="35" height="35" rx="17.5" fill="url(#paint0_linear_131_1105)" fill-opacity="0.3"/>
<g clip-path="url(#clip0_131_1105)">
<path d="M13.5052 13.0415L19.485 11.4092L19.1683 10.7691C18.9611 10.3531 18.4558 10.1813 18.0397 10.3885L12.6865 13.0415H13.5052Z" fill="#3F4E65"/>
<path d="M21.3413 11.4563C21.2672 11.4563 21.1931 11.4664 21.1189 11.4866L19.7141 11.8707L15.4238 13.0414H20.2936H22.416L22.1532 12.0779C22.0521 11.7022 21.7119 11.4563 21.3413 11.4563Z" fill="#3F4E65"/>
<path d="M23.2937 13.6311H23.1016H22.8405H22.5795H20.5867H13.2645H12.3043H11.4958H11.3459H10.8439C10.5778 13.6311 10.3403 13.7541 10.1853 13.9478C10.1145 14.0371 10.0606 14.1398 10.0303 14.2527C10.0118 14.3234 10 14.3975 10 14.4733V14.5744V15.5345V23.8574C10 24.3223 10.3773 24.6996 10.8422 24.6996H23.292C23.7569 24.6996 24.1342 24.3223 24.1342 23.8574V21.5076H19.1364C18.3464 21.5076 17.7047 20.8658 17.7047 20.0758V19.3043V19.0432V18.7821V18.2027C17.7047 17.8153 17.8596 17.4632 18.1106 17.2055C18.333 16.9764 18.6311 16.8214 18.9646 16.7827C19.0202 16.776 19.0775 16.7726 19.1348 16.7726H23.4335H23.6946H23.9556H24.1342V14.4733C24.1359 14.0084 23.7586 13.6311 23.2937 13.6311Z" fill="#3F4E65"/>
<path d="M24.7252 17.5776C24.6409 17.5001 24.5415 17.4411 24.4304 17.4024C24.3445 17.3738 24.2535 17.3569 24.1575 17.3569H24.1356H24.1188H23.8577H22.9161H19.1362C18.6712 17.3569 18.2939 17.7342 18.2939 18.1992V18.6186V18.8797V19.1407V20.0739C18.2939 20.5388 18.6712 20.9162 19.1362 20.9162H24.1356H24.1575C24.2535 20.9162 24.3445 20.8993 24.4304 20.8707C24.5415 20.8336 24.6409 20.773 24.7252 20.6955C24.8936 20.5422 24.9997 20.3199 24.9997 20.0739V18.1992C24.9997 17.9532 24.8936 17.7308 24.7252 17.5776ZM20.8947 19.3041C20.8947 19.5366 20.7061 19.7253 20.4736 19.7253H20.194C19.9615 19.7253 19.7729 19.5366 19.7729 19.3041V19.0245C19.7729 18.8898 19.8352 18.7702 19.9346 18.6944C20.007 18.6388 20.0963 18.6034 20.194 18.6034H20.2647H20.4736C20.7061 18.6034 20.8947 18.7921 20.8947 19.0245V19.3041Z" fill="#3F4E65"/>
</g>
<defs>
<linearGradient id="paint0_linear_131_1105" x1="2.75416e-07" y1="17.7966" x2="34.0375" y2="17.7966" gradientUnits="userSpaceOnUse">
<stop stop-color="#FFC650"/>
<stop offset="1" stop-color="#FECA6E"/>
</linearGradient>
<clipPath id="clip0_131_1105">
<rect width="15" height="15" fill="white" transform="translate(10 10)"/>
</clipPath>
</defs>
</svg>
